<svg xmlns="http://www.w3.org/2000/svg" viewBox="0 0 64 64">
  <defs>
    <linearGradient id="bg" x1="0" y1="0" x2="1" y2="1">
      <stop stop-color="#ef4444"/>
      <stop offset="1" stop-color="#9a3412"/>
    </linearGradient>
  </defs>
  <rect width="64" height="64" rx="13" fill="#111218"/>
  <rect x="8" y="8" width="48" height="48" rx="12" fill="url(#bg)" stroke="#fed7aa" stroke-width="3"/>
  <path d="M17 33c0-6 4-10 9-10 4 0 6 2 7 5 1-3 4-5 7-5 5 0 8 4 8 9v7c0 5-4 9-9 9H27c-6 0-10-4-10-10Z" fill="#fff"/>
  <path d="M22 24v-6M28 23v-7M36 24v-7M43 25v-5" fill="none" stroke="#fff" stroke-width="5" stroke-linecap="round"/>
</svg>
